# xmcd CD database file
#
# Track frame offsets:
#	150
#	15267
#	29260
#	44135
#	54627
#	66897
#	87675
#	99262
#	118257
#	134742
#	151565
#	168105
#	178127
#	190110
#	201915
#	220760
#
# Disc length: 3093 seconds
#
# Revision: 0
# Processed by: cddbd v1.4PL0 Copyright (c) Steve Scherf et al.
# Submitted via: CDex 1.50
#
DISCID=e00c1310
DTITLE=Country Artiesten - Country ladies
DYEAR=2001
DGENRE=Country
TTITLE0=Denise price-one of a kind
TTITLE1=Forrester sisters-i fell in love again last night
TTITLE2=Jeannie Cb Riley-harper valley
TTITLE3=Dolly Parton-honky tonk angels
TTITLE4=Dottie West-her comes my baby
TTITLE5=Tanya Tucker-texas when i die
TTITLE6=Kathy Mattea-street talk
TTITLE7=Gail Davis-i'll be your baby
TTITLE8=Kathy Mattea-someone is falling
TTITLE9=Tanya Tucker-the night they drove old dixie down
TTITLE10=Denis Price-love affair
TTITLE11=Gail Davis--i'll be there
TTITLE12=Sweethearts of the rodeo-hey dolly baby
TTITLE13=Beckey Hobbs-oklahoma heart
TTITLE14=Tanya Tucker-delta down
TTITLE15=Dolly Parton-making believe
EXTD=YEAR: 2001
EXTT0=
EXTT1=
EXTT2=
EXTT3=
EXTT4=
EXTT5=
EXTT6=
EXTT7=
EXTT8=
EXTT9=
EXTT10=
EXTT11=
EXTT12=
EXTT13=
EXTT14=
EXTT15=
PLAYORDER=
